<svg xmlns="http://www.w3.org/2000/svg" viewBox="0 0 64 64" role="img" aria-label="Neon Logo Generator">
  <defs>
    <linearGradient id="shell" x1="10" y1="8" x2="56" y2="58" gradientUnits="userSpaceOnUse">
      <stop offset="0" stop-color="#14051f"/>
      <stop offset="0.48" stop-color="#05030b"/>
      <stop offset="1" stop-color="#07162a"/>
    </linearGradient>
    <linearGradient id="neon" x1="16" y1="46" x2="50" y2="17" gradientUnits="userSpaceOnUse">
      <stop offset="0" stop-color="#ff2bd6"/>
      <stop offset="1" stop-color="#00d5ff"/>
    </linearGradient>
    <filter id="glow" x="-45%" y="-45%" width="190%" height="190%">
      <feGaussianBlur stdDeviation="2.2" result="blur"/>
      <feColorMatrix
        in="blur"
        type="matrix"
        values="0 0 0 0 0.00 0 0 0 0 0.84 0 0 0 0 1.00 0 0 0 0.9 0"
        result="cyanGlow"
      />
      <feMerge>
        <feMergeNode in="cyanGlow"/>
        <feMergeNode in="SourceGraphic"/>
      </feMerge>
    </filter>
  </defs>
  <rect width="64" height="64" rx="14" fill="url(#shell)"/>
  <path d="M12 44h40M12 32h40M12 20h40M20 12v40M32 12v40M44 12v40" stroke="#ffffff" stroke-opacity="0.08" stroke-width="1"/>
  <circle cx="48" cy="16" r="15" fill="#00d5ff" opacity="0.16"/>
  <circle cx="18" cy="47" r="14" fill="#ff2bd6" opacity="0.18"/>
  <path
    d="M18 46V18h7.4L39 34.9V18h7v28h-7.2L25 28.9V46z"
    fill="none"
    stroke="url(#neon)"
    stroke-linejoin="round"
    stroke-width="4.5"
    filter="url(#glow)"
  />
  <path d="M18 46V18h7.4L39 34.9V18h7v28h-7.2L25 28.9V46z" fill="#05030b" opacity="0.7"/>
  <path
    d="M18 46V18h7.4L39 34.9V18h7v28h-7.2L25 28.9V46z"
    fill="none"
    stroke="#f8fbff"
    stroke-linejoin="round"
    stroke-width="1.8"
  />
</svg>
